<mxfile host="app.diagrams.net" modified="2023-09-06T08:39:31.380Z" agent="Mozilla/5.0 (Macintosh; Intel Mac OS X 10.15; rv:109.0) Gecko/20100101 Firefox/117.0" etag="pqCQMnWpeJ8xSfvWY6W3" version="21.7.2" type="github">
  <diagram name="Page-1" id="I2XVdzow9aJ7vw_P53Os">
    <mxGraphModel dx="3987" dy="3000" grid="0" gridSize="10" guides="1" tooltips="1" connect="1" arrows="1" fold="1" page="1" pageScale="1" pageWidth="850" pageHeight="1100" background="#000000" math="0" shadow="0">
      <root>
        <mxCell id="0" />
        <mxCell id="1" parent="0" />
        <mxCell id="hhslKCSuNVBVUWtsOX8--3" value="&lt;div&gt;Riabilita interrupt&lt;br&gt;&lt;/div&gt;" style="rounded=0;whiteSpace=wrap;html=1;labelBackgroundColor=none;fillColor=#332828;strokeColor=#FFFFFF;fontColor=#FFFFFF;" parent="1" vertex="1">
          <mxGeometry x="-120" y="-620" width="200" height="20" as="geometry" />
        </mxCell>
        <mxCell id="hhslKCSuNVBVUWtsOX8--8" value="CAMBIA IN MODALITA&#39; TAP" style="edgeStyle=orthogonalEdgeStyle;rounded=0;orthogonalLoop=1;jettySize=auto;html=1;exitX=0;exitY=0.5;exitDx=0;exitDy=0;entryX=0.5;entryY=0;entryDx=0;entryDy=0;labelBackgroundColor=none;fontColor=#FFFFFF;strokeColor=#23445D;" parent="1" source="PhCDfMqtUbygox0qQyVL-4" target="hhslKCSuNVBVUWtsOX8--7" edge="1">
          <mxGeometry x="-0.0007" relative="1" as="geometry">
            <mxPoint as="offset" />
            <mxPoint x="700" y="-467.5" as="sourcePoint" />
          </mxGeometry>
        </mxCell>
        <mxCell id="hhslKCSuNVBVUWtsOX8--12" value="" style="edgeStyle=orthogonalEdgeStyle;rounded=0;orthogonalLoop=1;jettySize=auto;html=1;exitX=0;exitY=0.5;exitDx=0;exitDy=0;entryX=0.25;entryY=0;entryDx=0;entryDy=0;labelBackgroundColor=none;fontColor=#FFFFFF;strokeColor=#23445D;" parent="1" source="PhCDfMqtUbygox0qQyVL-3" target="hhslKCSuNVBVUWtsOX8--5" edge="1">
          <mxGeometry relative="1" as="geometry">
            <mxPoint x="700" y="-455" as="sourcePoint" />
          </mxGeometry>
        </mxCell>
        <mxCell id="hhslKCSuNVBVUWtsOX8--13" value="RESET COUNTER" style="edgeStyle=orthogonalEdgeStyle;rounded=0;orthogonalLoop=1;jettySize=auto;html=1;exitX=0;exitY=0.5;exitDx=0;exitDy=0;entryX=0.5;entryY=0;entryDx=0;entryDy=0;labelBackgroundColor=none;fontColor=#FFFFFF;strokeColor=#23445D;" parent="1" source="PhCDfMqtUbygox0qQyVL-5" target="hhslKCSuNVBVUWtsOX8--5" edge="1">
          <mxGeometry relative="1" as="geometry">
            <mxPoint x="700" y="-442.5" as="sourcePoint" />
          </mxGeometry>
        </mxCell>
        <mxCell id="hhslKCSuNVBVUWtsOX8--17" value="MOSTRA HIT 1" style="edgeStyle=orthogonalEdgeStyle;rounded=0;orthogonalLoop=1;jettySize=auto;html=1;exitX=1;exitY=0.5;exitDx=0;exitDy=0;entryX=0.5;entryY=0;entryDx=0;entryDy=0;labelBackgroundColor=none;fontColor=#FFFFFF;strokeColor=#23445D;" parent="1" source="PhCDfMqtUbygox0qQyVL-10" target="hhslKCSuNVBVUWtsOX8--6" edge="1">
          <mxGeometry relative="1" as="geometry" />
        </mxCell>
        <mxCell id="hhslKCSuNVBVUWtsOX8--5" value="reset counter" style="rounded=0;whiteSpace=wrap;html=1;labelBackgroundColor=none;fillColor=#330000;strokeColor=#FFFFFF;fontColor=#FFFFFF;" parent="1" vertex="1">
          <mxGeometry x="90" y="-450" width="200" height="20" as="geometry" />
        </mxCell>
        <mxCell id="hhslKCSuNVBVUWtsOX8--6" value="mostra numero di hit (1)" style="rounded=0;whiteSpace=wrap;html=1;labelBackgroundColor=none;fillColor=#333300;strokeColor=#FFFFFF;fontColor=#FFFFFF;" parent="1" vertex="1">
          <mxGeometry x="300" y="-360" width="200" height="20" as="geometry" />
        </mxCell>
        <mxCell id="hhslKCSuNVBVUWtsOX8--7" value="cambia modalitÃ  in TAP" style="rounded=0;whiteSpace=wrap;html=1;labelBackgroundColor=none;fillColor=#332828;strokeColor=#FFFFFF;fontColor=#FFFFFF;" parent="1" vertex="1">
          <mxGeometry x="-120" y="-480" width="200" height="20" as="geometry" />
        </mxCell>
        <mxCell id="hhslKCSuNVBVUWtsOX8--21" value="debounce" style="rounded=0;whiteSpace=wrap;html=1;labelBackgroundColor=none;fillColor=#330000;strokeColor=#FFFFFF;fontColor=#FFFFFF;" parent="1" vertex="1">
          <mxGeometry x="510" y="-260" width="200" height="20" as="geometry" />
        </mxCell>
        <mxCell id="hhslKCSuNVBVUWtsOX8--22" value="MOSTRA HIT 2" style="edgeStyle=orthogonalEdgeStyle;rounded=0;orthogonalLoop=1;jettySize=auto;html=1;exitX=1;exitY=0.5;exitDx=0;exitDy=0;entryX=0.5;entryY=0;entryDx=0;entryDy=0;labelBackgroundColor=none;fontColor=#FFFFFF;strokeColor=#23445D;" parent="1" source="PhCDfMqtUbygox0qQyVL-16" edge="1">
          <mxGeometry x="-0.25" relative="1" as="geometry">
            <mxPoint x="400" y="-50" as="targetPoint" />
            <mxPoint as="offset" />
          </mxGeometry>
        </mxCell>
        <mxCell id="hhslKCSuNVBVUWtsOX8--28" style="edgeStyle=orthogonalEdgeStyle;rounded=0;orthogonalLoop=1;jettySize=auto;html=1;exitX=0;exitY=0.5;exitDx=0;exitDy=0;entryX=0.5;entryY=0;entryDx=0;entryDy=0;labelBackgroundColor=none;fontColor=#FFFFFF;strokeColor=#23445D;" parent="1" source="PhCDfMqtUbygox0qQyVL-20" target="hhslKCSuNVBVUWtsOX8--27" edge="1">
          <mxGeometry relative="1" as="geometry">
            <mxPoint x="80" y="100" as="sourcePoint" />
          </mxGeometry>
        </mxCell>
        <mxCell id="KNY3QH7jCXh7m2xdBfdu-1" value="PASSA A SLEEP" style="edgeLabel;html=1;align=center;verticalAlign=middle;resizable=0;points=[];labelBackgroundColor=none;fontColor=#FFFFFF;" parent="hhslKCSuNVBVUWtsOX8--28" vertex="1" connectable="0">
          <mxGeometry x="-0.28" y="-2" relative="1" as="geometry">
            <mxPoint as="offset" />
          </mxGeometry>
        </mxCell>
        <mxCell id="hhslKCSuNVBVUWtsOX8--26" value="si sospende" style="rounded=0;whiteSpace=wrap;html=1;labelBackgroundColor=none;fillColor=#330000;strokeColor=#FFFFFF;fontColor=#FFFFFF;" parent="1" vertex="1">
          <mxGeometry x="90" y="110" width="200" height="20" as="geometry" />
        </mxCell>
        <mxCell id="hhslKCSuNVBVUWtsOX8--32" value="SPEGNERE DISPLAY" style="edgeStyle=orthogonalEdgeStyle;rounded=0;orthogonalLoop=1;jettySize=auto;html=1;exitX=1;exitY=0.5;exitDx=0;exitDy=0;entryX=0.5;entryY=0;entryDx=0;entryDy=0;labelBackgroundColor=none;fontColor=#FFFFFF;strokeColor=#23445D;" parent="1" source="hhslKCSuNVBVUWtsOX8--27" target="hhslKCSuNVBVUWtsOX8--29" edge="1">
          <mxGeometry relative="1" as="geometry" />
        </mxCell>
        <mxCell id="hhslKCSuNVBVUWtsOX8--27" value="QUEUE SEND" style="rounded=0;whiteSpace=wrap;html=1;labelBackgroundColor=none;fillColor=#332828;strokeColor=#FFFFFF;fontColor=#FFFFFF;" parent="1" vertex="1">
          <mxGeometry x="-120" y="150" width="200" height="20" as="geometry" />
        </mxCell>
        <mxCell id="hhslKCSuNVBVUWtsOX8--29" value="spegne display" style="rounded=0;whiteSpace=wrap;html=1;labelBackgroundColor=none;fillColor=#333300;strokeColor=#FFFFFF;fontColor=#FFFFFF;" parent="1" vertex="1">
          <mxGeometry x="300" y="220" width="200" height="20" as="geometry" />
        </mxCell>
        <mxCell id="KNY3QH7jCXh7m2xdBfdu-22" style="edgeStyle=orthogonalEdgeStyle;rounded=0;orthogonalLoop=1;jettySize=auto;html=1;exitX=1;exitY=0.5;exitDx=0;exitDy=0;entryX=0.14;entryY=0;entryDx=0;entryDy=0;entryPerimeter=0;labelBackgroundColor=none;fontColor=#FFFFFF;strokeColor=#23445D;" parent="1" source="hhslKCSuNVBVUWtsOX8--35" target="hhslKCSuNVBVUWtsOX8--40" edge="1">
          <mxGeometry relative="1" as="geometry" />
        </mxCell>
        <mxCell id="hhslKCSuNVBVUWtsOX8--35" value="TASK RESUME" style="rounded=0;whiteSpace=wrap;html=1;labelBackgroundColor=none;fillColor=#330000;strokeColor=#FFFFFF;fontColor=#FFFFFF;" parent="1" vertex="1">
          <mxGeometry x="90" y="520" width="200" height="20" as="geometry" />
        </mxCell>
        <mxCell id="hhslKCSuNVBVUWtsOX8--38" value="cambia mode in play" style="rounded=0;whiteSpace=wrap;html=1;labelBackgroundColor=none;fillColor=#332828;strokeColor=#FFFFFF;fontColor=#FFFFFF;" parent="1" vertex="1">
          <mxGeometry x="-120" y="600" width="200" height="20" as="geometry" />
        </mxCell>
        <mxCell id="hhslKCSuNVBVUWtsOX8--40" value="avvia sequenza" style="rounded=0;whiteSpace=wrap;html=1;points=[[0,0,0,0,0],[0,0.25,0,0,0],[0,0.5,0,0,0],[0,0.75,0,0,0],[0,1,0,0,0],[0.14,0,0,0,0],[0.25,1,0,0,0],[0.38,0,0,0,0],[0.5,1,0,0,0],[0.63,0,0,0,0],[0.75,1,0,0,0],[0.84,0,0,0,0],[1,0,0,0,0],[1,0.25,0,0,0],[1,0.5,0,0,0],[1,0.75,0,0,0],[1,1,0,0,0]];labelBackgroundColor=none;fillColor=#000033;strokeColor=#FFFFFF;fontColor=#FFFFFF;" parent="1" vertex="1">
          <mxGeometry x="720" y="590" width="200" height="20" as="geometry" />
        </mxCell>
        <mxCell id="hhslKCSuNVBVUWtsOX8--44" value="riceve parametri" style="rounded=0;whiteSpace=wrap;html=1;labelBackgroundColor=none;fillColor=#663300;strokeColor=#FFFFFF;fontColor=#FFFFFF;" parent="1" vertex="1">
          <mxGeometry x="930" y="530" width="200" height="20" as="geometry" />
        </mxCell>
        <mxCell id="hhslKCSuNVBVUWtsOX8--45" value="riceve parametri" style="rounded=0;whiteSpace=wrap;html=1;labelBackgroundColor=none;fillColor=#182E3E;strokeColor=#FFFFFF;fontColor=#FFFFFF;" parent="1" vertex="1">
          <mxGeometry x="1140" y="550" width="200" height="20" as="geometry" />
        </mxCell>
        <mxCell id="PhCDfMqtUbygox0qQyVL-2" value="debounce" style="rounded=0;whiteSpace=wrap;html=1;labelBackgroundColor=none;fillColor=#330000;strokeColor=#FFFFFF;fontColor=#FFFFFF;" parent="1" vertex="1">
          <mxGeometry x="510" y="-590" width="200" height="20" as="geometry" />
        </mxCell>
        <mxCell id="PhCDfMqtUbygox0qQyVL-3" value="QUEUE RESET" style="rounded=0;whiteSpace=wrap;html=1;labelBackgroundColor=none;fillColor=#330000;strokeColor=#FFFFFF;fontColor=#FFFFFF;" parent="1" vertex="1">
          <mxGeometry x="510" y="-550" width="200" height="20" as="geometry" />
        </mxCell>
        <mxCell id="PhCDfMqtUbygox0qQyVL-4" value="NOTIFY" style="rounded=0;whiteSpace=wrap;html=1;labelBackgroundColor=none;fillColor=#330000;strokeColor=#FFFFFF;fontColor=#FFFFFF;" parent="1" vertex="1">
          <mxGeometry x="510" y="-570" width="200" height="20" as="geometry" />
        </mxCell>
        <mxCell id="PhCDfMqtUbygox0qQyVL-5" value="QUEUE SEND" style="rounded=0;whiteSpace=wrap;html=1;labelBackgroundColor=none;fillColor=#330000;strokeColor=#FFFFFF;fontColor=#FFFFFF;" parent="1" vertex="1">
          <mxGeometry x="510" y="-530" width="200" height="20" as="geometry" />
        </mxCell>
        <mxCell id="PhCDfMqtUbygox0qQyVL-7" value="HIT RICEVUTO + VALORE" style="edgeStyle=orthogonalEdgeStyle;rounded=0;orthogonalLoop=1;jettySize=auto;html=1;exitX=0;exitY=0.5;exitDx=0;exitDy=0;entryX=0.75;entryY=0;entryDx=0;entryDy=0;labelBackgroundColor=none;fontColor=#FFFFFF;strokeColor=#23445D;" parent="1" source="PhCDfMqtUbygox0qQyVL-6" target="hhslKCSuNVBVUWtsOX8--5" edge="1">
          <mxGeometry relative="1" as="geometry" />
        </mxCell>
        <mxCell id="PhCDfMqtUbygox0qQyVL-6" value="QUEUE SEND" style="rounded=0;whiteSpace=wrap;html=1;labelBackgroundColor=none;fillColor=#330000;strokeColor=#FFFFFF;fontColor=#FFFFFF;" parent="1" vertex="1">
          <mxGeometry x="510" y="-510" width="200" height="20" as="geometry" />
        </mxCell>
        <mxCell id="PhCDfMqtUbygox0qQyVL-8" value="annota valore tempo del tap" style="rounded=0;whiteSpace=wrap;html=1;labelBackgroundColor=none;fillColor=#330000;strokeColor=#FFFFFF;fontColor=#FFFFFF;" parent="1" vertex="1">
          <mxGeometry x="90" y="-430" width="200" height="20" as="geometry" />
        </mxCell>
        <mxCell id="PhCDfMqtUbygox0qQyVL-9" value="incrementa counter delle hit" style="rounded=0;whiteSpace=wrap;html=1;labelBackgroundColor=none;fillColor=#330000;strokeColor=#FFFFFF;fontColor=#FFFFFF;" parent="1" vertex="1">
          <mxGeometry x="90" y="-410" width="200" height="20" as="geometry" />
        </mxCell>
        <mxCell id="PhCDfMqtUbygox0qQyVL-10" value="QUEUE SEND" style="rounded=0;whiteSpace=wrap;html=1;labelBackgroundColor=none;fillColor=#330000;strokeColor=#FFFFFF;fontColor=#FFFFFF;" parent="1" vertex="1">
          <mxGeometry x="90" y="-390" width="200" height="20" as="geometry" />
        </mxCell>
        <mxCell id="PhCDfMqtUbygox0qQyVL-12" value="debounce" style="rounded=0;whiteSpace=wrap;html=1;labelBackgroundColor=none;fillColor=#330000;strokeColor=#FFFFFF;fontColor=#FFFFFF;" parent="1" vertex="1">
          <mxGeometry x="510" y="-210" width="200" height="20" as="geometry" />
        </mxCell>
        <mxCell id="PhCDfMqtUbygox0qQyVL-30" value="HIT RICEVUTO + VALORE" style="edgeStyle=orthogonalEdgeStyle;rounded=0;orthogonalLoop=1;jettySize=auto;html=1;exitX=0;exitY=0.5;exitDx=0;exitDy=0;entryX=0.5;entryY=0;entryDx=0;entryDy=0;labelBackgroundColor=none;fontColor=#FFFFFF;strokeColor=#23445D;" parent="1" source="PhCDfMqtUbygox0qQyVL-13" target="PhCDfMqtUbygox0qQyVL-14" edge="1">
          <mxGeometry relative="1" as="geometry" />
        </mxCell>
        <mxCell id="PhCDfMqtUbygox0qQyVL-13" value="QUEUE SEND" style="rounded=0;whiteSpace=wrap;html=1;labelBackgroundColor=none;fillColor=#330000;strokeColor=#FFFFFF;fontColor=#FFFFFF;" parent="1" vertex="1">
          <mxGeometry x="510" y="-190" width="200" height="20" as="geometry" />
        </mxCell>
        <mxCell id="PhCDfMqtUbygox0qQyVL-14" value="annota valore tempo del tap" style="rounded=0;whiteSpace=wrap;html=1;labelBackgroundColor=none;fillColor=#330000;strokeColor=#FFFFFF;fontColor=#FFFFFF;" parent="1" vertex="1">
          <mxGeometry x="90" y="-150" width="200" height="20" as="geometry" />
        </mxCell>
        <mxCell id="PhCDfMqtUbygox0qQyVL-15" value="incrementa counter delle hit" style="rounded=0;whiteSpace=wrap;html=1;labelBackgroundColor=none;fillColor=#330000;strokeColor=#FFFFFF;fontColor=#FFFFFF;" parent="1" vertex="1">
          <mxGeometry x="90" y="-130" width="200" height="20" as="geometry" />
        </mxCell>
        <mxCell id="PhCDfMqtUbygox0qQyVL-16" value="QUEUE SEND" style="rounded=0;whiteSpace=wrap;html=1;labelBackgroundColor=none;fillColor=#330000;strokeColor=#FFFFFF;fontColor=#FFFFFF;" parent="1" vertex="1">
          <mxGeometry x="90" y="-110" width="200" height="20" as="geometry" />
        </mxCell>
        <mxCell id="PhCDfMqtUbygox0qQyVL-17" value="&lt;div&gt;Esce da sleep&lt;/div&gt;" style="rounded=0;whiteSpace=wrap;html=1;labelBackgroundColor=none;fillColor=#332828;strokeColor=#FFFFFF;fontColor=#FFFFFF;" parent="1" vertex="1">
          <mxGeometry x="-120" y="-640" width="200" height="20" as="geometry" />
        </mxCell>
        <mxCell id="PhCDfMqtUbygox0qQyVL-20" value="QUEUE SEND" style="rounded=0;whiteSpace=wrap;html=1;labelBackgroundColor=none;fillColor=#330000;strokeColor=#FFFFFF;fontColor=#FFFFFF;" parent="1" vertex="1">
          <mxGeometry x="90" y="90" width="200" height="20" as="geometry" />
        </mxCell>
        <mxCell id="PhCDfMqtUbygox0qQyVL-22" value="disattiva interrupt GPIO" style="rounded=0;whiteSpace=wrap;html=1;labelBackgroundColor=none;fillColor=#332828;strokeColor=#FFFFFF;fontColor=#FFFFFF;" parent="1" vertex="1">
          <mxGeometry x="-120" y="170" width="200" height="20" as="geometry" />
        </mxCell>
        <mxCell id="KNY3QH7jCXh7m2xdBfdu-5" value="DELAY" style="edgeStyle=orthogonalEdgeStyle;rounded=0;orthogonalLoop=1;jettySize=auto;html=1;exitX=0.5;exitY=1;exitDx=0;exitDy=0;labelBackgroundColor=none;fontColor=#FFFFFF;strokeColor=#23445D;" parent="1" source="KNY3QH7jCXh7m2xdBfdu-2" target="KNY3QH7jCXh7m2xdBfdu-3" edge="1">
          <mxGeometry relative="1" as="geometry" />
        </mxCell>
        <mxCell id="KNY3QH7jCXh7m2xdBfdu-2" value="attiva wakeup pin GPIO" style="rounded=0;whiteSpace=wrap;html=1;labelBackgroundColor=none;fillColor=#332828;strokeColor=#FFFFFF;fontColor=#FFFFFF;" parent="1" vertex="1">
          <mxGeometry x="-120" y="190" width="200" height="20" as="geometry" />
        </mxCell>
        <mxCell id="KNY3QH7jCXh7m2xdBfdu-3" value="attiva light sleep" style="rounded=0;whiteSpace=wrap;html=1;labelBackgroundColor=none;fillColor=#332828;strokeColor=#FFFFFF;fontColor=#FFFFFF;" parent="1" vertex="1">
          <mxGeometry x="-120" y="260" width="200" height="20" as="geometry" />
        </mxCell>
        <mxCell id="KNY3QH7jCXh7m2xdBfdu-6" value="calcola il bpm in base ai tap ricevuti" style="rounded=0;whiteSpace=wrap;html=1;labelBackgroundColor=none;fillColor=#330000;strokeColor=#FFFFFF;fontColor=#FFFFFF;" parent="1" vertex="1">
          <mxGeometry x="90" y="400" width="200" height="20" as="geometry" />
        </mxCell>
        <mxCell id="KNY3QH7jCXh7m2xdBfdu-8" value="PASSA A&amp;nbsp; PLAY" style="edgeStyle=orthogonalEdgeStyle;rounded=0;orthogonalLoop=1;jettySize=auto;html=1;exitX=0;exitY=0.5;exitDx=0;exitDy=0;labelBackgroundColor=none;fontColor=#FFFFFF;strokeColor=#23445D;" parent="1" source="KNY3QH7jCXh7m2xdBfdu-7" target="hhslKCSuNVBVUWtsOX8--38" edge="1">
          <mxGeometry x="-0.6" relative="1" as="geometry">
            <mxPoint x="80" y="430" as="sourcePoint" />
            <mxPoint as="offset" />
          </mxGeometry>
        </mxCell>
        <mxCell id="KNY3QH7jCXh7m2xdBfdu-7" value="QUEUE SEND" style="rounded=0;whiteSpace=wrap;html=1;labelBackgroundColor=none;fillColor=#330000;strokeColor=#FFFFFF;fontColor=#FFFFFF;" parent="1" vertex="1">
          <mxGeometry x="90" y="420" width="200" height="20" as="geometry" />
        </mxCell>
        <mxCell id="KNY3QH7jCXh7m2xdBfdu-25" value="BPM INIZIALE" style="edgeStyle=orthogonalEdgeStyle;rounded=0;orthogonalLoop=1;jettySize=auto;html=1;exitX=1;exitY=0.5;exitDx=0;exitDy=0;entryX=0.5;entryY=0;entryDx=0;entryDy=0;labelBackgroundColor=none;fontColor=#FFFFFF;strokeColor=#23445D;" parent="1" source="KNY3QH7jCXh7m2xdBfdu-10" target="hhslKCSuNVBVUWtsOX8--45" edge="1">
          <mxGeometry relative="1" as="geometry" />
        </mxCell>
        <mxCell id="KNY3QH7jCXh7m2xdBfdu-10" value="NOTIFY" style="rounded=0;whiteSpace=wrap;html=1;labelBackgroundColor=none;fillColor=#330000;strokeColor=#FFFFFF;fontColor=#FFFFFF;" parent="1" vertex="1">
          <mxGeometry x="90" y="440" width="200" height="20" as="geometry" />
        </mxCell>
        <mxCell id="KNY3QH7jCXh7m2xdBfdu-24" style="edgeStyle=orthogonalEdgeStyle;rounded=0;orthogonalLoop=1;jettySize=auto;html=1;exitX=1;exitY=0.5;exitDx=0;exitDy=0;entryX=0.5;entryY=0;entryDx=0;entryDy=0;labelBackgroundColor=none;fontColor=#FFFFFF;strokeColor=#23445D;" parent="1" source="KNY3QH7jCXh7m2xdBfdu-11" target="hhslKCSuNVBVUWtsOX8--44" edge="1">
          <mxGeometry relative="1" as="geometry" />
        </mxCell>
        <mxCell id="N_LR9jjwNTu6T19EwOCL-4" value="BPM INIZIALE" style="edgeLabel;html=1;align=center;verticalAlign=middle;resizable=0;points=[];labelBackgroundColor=none;fontColor=#FFFFFF;" vertex="1" connectable="0" parent="KNY3QH7jCXh7m2xdBfdu-24">
          <mxGeometry x="0.16" relative="1" as="geometry">
            <mxPoint as="offset" />
          </mxGeometry>
        </mxCell>
        <mxCell id="KNY3QH7jCXh7m2xdBfdu-11" value="NOTIFY" style="rounded=0;whiteSpace=wrap;html=1;labelBackgroundColor=none;fillColor=#330000;strokeColor=#FFFFFF;fontColor=#FFFFFF;" parent="1" vertex="1">
          <mxGeometry x="90" y="460" width="200" height="20" as="geometry" />
        </mxCell>
        <mxCell id="KNY3QH7jCXh7m2xdBfdu-16" style="edgeStyle=orthogonalEdgeStyle;rounded=0;orthogonalLoop=1;jettySize=auto;html=1;exitX=1;exitY=0.5;exitDx=0;exitDy=0;entryX=0.84;entryY=0;entryDx=0;entryDy=0;entryPerimeter=0;labelBackgroundColor=none;fontColor=#FFFFFF;strokeColor=#23445D;" parent="1" source="KNY3QH7jCXh7m2xdBfdu-12" target="hhslKCSuNVBVUWtsOX8--40" edge="1">
          <mxGeometry relative="1" as="geometry" />
        </mxCell>
        <mxCell id="KNY3QH7jCXh7m2xdBfdu-12" value="QUEUE RESET" style="rounded=0;whiteSpace=wrap;html=1;labelBackgroundColor=none;fillColor=#330000;strokeColor=#FFFFFF;fontColor=#FFFFFF;" parent="1" vertex="1">
          <mxGeometry x="90" y="480" width="200" height="20" as="geometry" />
        </mxCell>
        <mxCell id="KNY3QH7jCXh7m2xdBfdu-17" value="AVVIA SEQUENZA + POSIZIONE PRIMO MIDI CLOCK" style="edgeStyle=orthogonalEdgeStyle;rounded=0;orthogonalLoop=1;jettySize=auto;html=1;exitX=1;exitY=0.5;exitDx=0;exitDy=0;entryX=0.63;entryY=0;entryDx=0;entryDy=0;entryPerimeter=0;labelBackgroundColor=none;fontColor=#FFFFFF;strokeColor=#23445D;" parent="1" source="KNY3QH7jCXh7m2xdBfdu-13" target="hhslKCSuNVBVUWtsOX8--40" edge="1">
          <mxGeometry relative="1" as="geometry" />
        </mxCell>
        <mxCell id="KNY3QH7jCXh7m2xdBfdu-13" value="QUEUE SEND" style="rounded=0;whiteSpace=wrap;html=1;labelBackgroundColor=none;fillColor=#330000;strokeColor=#FFFFFF;fontColor=#FFFFFF;" parent="1" vertex="1">
          <mxGeometry x="90" y="500" width="200" height="20" as="geometry" />
        </mxCell>
        <mxCell id="KNY3QH7jCXh7m2xdBfdu-20" value="si sospende" style="rounded=0;whiteSpace=wrap;html=1;labelBackgroundColor=none;fillColor=#330000;strokeColor=#FFFFFF;fontColor=#FFFFFF;" parent="1" vertex="1">
          <mxGeometry x="90" y="560" width="200" height="20" as="geometry" />
        </mxCell>
        <mxCell id="KNY3QH7jCXh7m2xdBfdu-23" value="azzera counter" style="rounded=0;whiteSpace=wrap;html=1;labelBackgroundColor=none;fillColor=#330000;strokeColor=#FFFFFF;fontColor=#FFFFFF;" parent="1" vertex="1">
          <mxGeometry x="90" y="540" width="200" height="20" as="geometry" />
        </mxCell>
        <mxCell id="KNY3QH7jCXh7m2xdBfdu-34" value="mode_switch_task" style="rounded=0;whiteSpace=wrap;html=1;labelBackgroundColor=none;fillColor=none;strokeColor=#FFFFFF;fontColor=#FFFFFF;dashed=1;" parent="1" vertex="1">
          <mxGeometry x="-120" y="-750" width="200" height="30" as="geometry" />
        </mxCell>
        <mxCell id="KNY3QH7jCXh7m2xdBfdu-37" value="tap_task" style="rounded=0;whiteSpace=wrap;html=1;labelBackgroundColor=none;fillColor=none;strokeColor=#FFFFFF;fontColor=#FFFFFF;dashed=1;" parent="1" vertex="1">
          <mxGeometry x="90" y="-750" width="200" height="30" as="geometry" />
        </mxCell>
        <mxCell id="KNY3QH7jCXh7m2xdBfdu-39" value="hid_task" style="rounded=0;whiteSpace=wrap;html=1;labelBackgroundColor=none;fillColor=none;strokeColor=#FFFFFF;fontColor=#FFFFFF;dashed=1;" parent="1" vertex="1">
          <mxGeometry x="300" y="-750" width="200" height="30" as="geometry" />
        </mxCell>
        <mxCell id="KNY3QH7jCXh7m2xdBfdu-40" value="tap_tempo_isr_handler" style="rounded=0;whiteSpace=wrap;html=1;labelBackgroundColor=none;fillColor=none;strokeColor=#FFFFFF;fontColor=#FFFFFF;dashed=1;" parent="1" vertex="1">
          <mxGeometry x="510" y="-750" width="200" height="30" as="geometry" />
        </mxCell>
        <mxCell id="KNY3QH7jCXh7m2xdBfdu-44" value="clock_task" style="rounded=0;whiteSpace=wrap;html=1;labelBackgroundColor=none;fillColor=none;strokeColor=#FFFFFF;fontColor=#FFFFFF;dashed=1;" parent="1" vertex="1">
          <mxGeometry x="720" y="-750" width="200" height="30" as="geometry" />
        </mxCell>
        <mxCell id="KNY3QH7jCXh7m2xdBfdu-49" value="tempo_task" style="rounded=0;whiteSpace=wrap;html=1;labelBackgroundColor=none;fillColor=none;strokeColor=#FFFFFF;fontColor=#FFFFFF;dashed=1;" parent="1" vertex="1">
          <mxGeometry x="1140" y="-750" width="200" height="30" as="geometry" />
        </mxCell>
        <mxCell id="KNY3QH7jCXh7m2xdBfdu-50" value="sync_task" style="rounded=0;whiteSpace=wrap;html=1;labelBackgroundColor=none;fillColor=none;strokeColor=#FFFFFF;fontColor=#FFFFFF;dashed=1;" parent="1" vertex="1">
          <mxGeometry x="930" y="-750" width="200" height="30" as="geometry" />
        </mxCell>
        <mxCell id="3c09y6IFcqSazc1PMEqd-8" value="L&#39;UTENTE PREME IL TASTO TAP (O COLPISCE IL PAD) PER LA PRIMA VOLTA " style="rounded=1;whiteSpace=wrap;html=1;strokeColor=#FFFFFF;fontColor=#FFFFFF;fillColor=#182E3E;" parent="1" vertex="1">
          <mxGeometry x="-120" y="-690" width="1460" height="30" as="geometry" />
        </mxCell>
        <mxCell id="3c09y6IFcqSazc1PMEqd-9" value="L&#39;UTENTE PREME IL TASTO TAP (O COLPISCE IL PAD)" style="rounded=1;whiteSpace=wrap;html=1;strokeColor=#FFFFFF;fontColor=#FFFFFF;fillColor=#182E3E;" parent="1" vertex="1">
          <mxGeometry x="-130" y="-270" width="1460" height="30" as="geometry" />
        </mxCell>
        <mxCell id="3c09y6IFcqSazc1PMEqd-10" value="L&#39;UTENTE NON PREME IL TASTO PER IL PERIODO DI TIMEOUT" style="rounded=1;whiteSpace=wrap;html=1;strokeColor=#FFFFFF;fontColor=#FFFFFF;fillColor=#182E3E;" parent="1" vertex="1">
          <mxGeometry x="-130" y="30" width="1460" height="30" as="geometry" />
        </mxCell>
        <mxCell id="N_LR9jjwNTu6T19EwOCL-2" value="mostra numero di hit (1)" style="rounded=0;whiteSpace=wrap;html=1;labelBackgroundColor=none;fillColor=#333300;strokeColor=#FFFFFF;fontColor=#FFFFFF;" vertex="1" parent="1">
          <mxGeometry x="300" y="-50" width="200" height="20" as="geometry" />
        </mxCell>
        <mxCell id="N_LR9jjwNTu6T19EwOCL-3" value="L&#39;UTENTE PREME IL TASTO TAP PER LA QUARTA VOLTA" style="rounded=1;whiteSpace=wrap;html=1;strokeColor=#FFFFFF;fontColor=#FFFFFF;fillColor=#182E3E;" vertex="1" parent="1">
          <mxGeometry x="-130" y="330" width="1460" height="30" as="geometry" />
        </mxCell>
      </root>
    </mxGraphModel>
  </diagram>
</mxfile>
